<svg width="269" height="36" viewBox="0 0 269 36" fill="none" xmlns="http://www.w3.org/2000/svg">
<path d="M0.768 8.88005C0.864 7.28005 1.264 5.95205 1.968 4.89605C2.672 3.84005 3.568 2.99205 4.656 2.35205C5.744 1.71205 6.96 1.26405 8.304 1.00805C9.68 0.72005 11.056 0.57605 12.432 0.57605C13.68 0.57605 14.944 0.67205 16.224 0.864049C17.504 1.02405 18.672 1.36005 19.728 1.87205C20.784 2.38405 21.648 3.10405 22.32 4.03205C22.992 4.92805 23.328 6.12805 23.328 7.63205V20.5441C23.328 21.6641 23.392 22.736 23.52 23.76C23.648 24.784 23.872 25.5521 24.192 26.0641H17.28C17.152 25.6801 17.04 25.2961 16.944 24.9121C16.88 24.4961 16.832 24.0801 16.8 23.6641C15.712 24.7841 14.432 25.5681 12.96 26.0161C11.488 26.4641 9.984 26.6881 8.448 26.6881C7.264 26.6881 6.16 26.5441 5.136 26.2561C4.112 25.9681 3.216 25.5201 2.448 24.9121C1.68 24.3041 1.072 23.5361 0.624 22.6081C0.208 21.6801 0 20.5761 0 19.2961C0 17.8881 0.24 16.7361 0.72 15.84C1.232 14.912 1.872 14.1761 2.64 13.6321C3.44 13.088 4.336 12.6881 5.328 12.4321C6.352 12.1441 7.376 11.92 8.4 11.76C9.424 11.6 10.432 11.472 11.424 11.376C12.416 11.28 13.296 11.1361 14.064 10.944C14.832 10.7521 15.44 10.4801 15.888 10.128C16.336 9.74405 16.544 9.20005 16.512 8.49605C16.512 7.76005 16.384 7.18405 16.128 6.76805C15.904 6.32005 15.584 5.98405 15.168 5.76005C14.784 5.50405 14.32 5.34405 13.776 5.28005C13.264 5.18405 12.704 5.13605 12.096 5.13605C10.752 5.13605 9.696 5.42405 8.928 6.00005C8.16 6.57605 7.712 7.53605 7.584 8.88005H0.768ZM16.512 13.92C16.224 14.1761 15.856 14.3841 15.408 14.5441C14.992 14.672 14.528 14.7841 14.016 14.8801C13.536 14.9761 13.024 15.0561 12.48 15.1201C11.936 15.1841 11.392 15.2641 10.848 15.3601C10.336 15.456 9.824 15.5841 9.312 15.7441C8.832 15.9041 8.4 16.128 8.016 16.416C7.664 16.672 7.376 17.008 7.152 17.424C6.928 17.84 6.816 18.3681 6.816 19.0081C6.816 19.6161 6.928 20.1281 7.152 20.5441C7.376 20.9601 7.68 21.296 8.064 21.552C8.448 21.776 8.896 21.9361 9.408 22.0321C9.92 22.1281 10.448 22.1761 10.992 22.1761C12.336 22.1761 13.376 21.9521 14.112 21.5041C14.848 21.0561 15.392 20.528 15.744 19.92C16.096 19.28 16.304 18.64 16.368 18C16.464 17.36 16.512 16.8481 16.512 16.4641V13.92Z" fill="#54370C"/>
<path d="M51.6585 26.0641H45.1785V22.6081H45.0345C44.1705 24.0481 43.0505 25.0881 41.6745 25.7281C40.2985 26.3681 38.8905 26.6881 37.4505 26.6881C35.6265 26.6881 34.1225 26.4481 32.9385 25.9681C31.7865 25.488 30.8745 24.8161 30.2025 23.9521C29.5305 23.0561 29.0505 21.984 28.7625 20.736C28.5065 19.456 28.3785 18.048 28.3785 16.512V1.24805H35.1945V15.2641C35.1945 17.3121 35.5145 18.8481 36.1545 19.8721C36.7945 20.8641 37.9305 21.3601 39.5625 21.3601C41.4185 21.3601 42.7625 20.8161 43.5945 19.7281C44.4265 18.608 44.8425 16.784 44.8425 14.2561V1.24805H51.6585V26.0641Z" fill="#54370C"/>
<path d="M56.5916 1.24805H63.0716V5.85605H63.1676C63.4876 5.08805 63.9196 4.38405 64.4636 3.74405C65.0076 3.07205 65.6316 2.51205 66.3356 2.06405C67.0396 1.58405 67.7916 1.21605 68.5916 0.960051C69.3916 0.70405 70.2236 0.57605 71.0876 0.57605C71.5356 0.57605 72.0316 0.65605 72.5756 0.81605V7.15205C72.2556 7.08805 71.8716 7.04005 71.4236 7.00805C70.9756 6.94405 70.5436 6.91205 70.1276 6.91205C68.8796 6.91205 67.8236 7.12005 66.9596 7.53605C66.0956 7.95205 65.3916 8.52805 64.8476 9.26405C64.3356 9.96805 63.9676 10.8 63.7436 11.76C63.5196 12.72 63.4076 13.7601 63.4076 14.8801V26.0641H56.5916V1.24805Z" fill="#54370C"/>
<path d="M74.7199 8.88005C74.8159 7.28005 75.2159 5.95205 75.9199 4.89605C76.6239 3.84005 77.5199 2.99205 78.6079 2.35205C79.6959 1.71205 80.9119 1.26405 82.2559 1.00805C83.6319 0.72005 85.0079 0.57605 86.3839 0.57605C87.6319 0.57605 88.8959 0.67205 90.1759 0.864049C91.4559 1.02405 92.6239 1.36005 93.6799 1.87205C94.7359 2.38405 95.5999 3.10405 96.2719 4.03205C96.9439 4.92805 97.2799 6.12805 97.2799 7.63205V20.5441C97.2799 21.6641 97.3439 22.736 97.4719 23.76C97.5999 24.784 97.8239 25.5521 98.1439 26.0641H91.2319C91.1039 25.6801 90.9919 25.2961 90.8959 24.9121C90.8319 24.4961 90.7839 24.0801 90.7519 23.6641C89.6639 24.7841 88.3839 25.5681 86.9119 26.0161C85.4399 26.4641 83.9359 26.6881 82.3999 26.6881C81.2159 26.6881 80.1119 26.5441 79.0879 26.2561C78.0639 25.9681 77.1679 25.5201 76.3999 24.9121C75.6319 24.3041 75.0239 23.5361 74.5759 22.6081C74.1599 21.6801 73.9519 20.5761 73.9519 19.2961C73.9519 17.8881 74.1919 16.7361 74.6719 15.84C75.1839 14.912 75.8239 14.1761 76.5919 13.6321C77.3919 13.088 78.2879 12.6881 79.2799 12.4321C80.3039 12.1441 81.3279 11.92 82.3519 11.76C83.3759 11.6 84.3839 11.472 85.3759 11.376C86.3679 11.28 87.2479 11.1361 88.0159 10.944C88.7839 10.7521 89.3919 10.4801 89.8399 10.128C90.2879 9.74405 90.4959 9.20005 90.4639 8.49605C90.4639 7.76005 90.3359 7.18405 90.0799 6.76805C89.8559 6.32005 89.5359 5.98405 89.1199 5.76005C88.7359 5.50405 88.2719 5.34405 87.7279 5.28005C87.2159 5.18405 86.6559 5.13605 86.0479 5.13605C84.7039 5.13605 83.6479 5.42405 82.8799 6.00005C82.1119 6.57605 81.6639 7.53605 81.5359 8.88005H74.7199ZM90.4639 13.92C90.1759 14.1761 89.8079 14.3841 89.3599 14.5441C88.9439 14.672 88.4799 14.7841 87.9679 14.8801C87.4879 14.9761 86.9759 15.0561 86.4319 15.1201C85.8879 15.1841 85.3439 15.2641 84.7999 15.3601C84.2879 15.456 83.7759 15.5841 83.2639 15.7441C82.7839 15.9041 82.3519 16.128 81.9679 16.416C81.6159 16.672 81.3279 17.008 81.1039 17.424C80.8799 17.84 80.7679 18.3681 80.7679 19.0081C80.7679 19.6161 80.8799 20.1281 81.1039 20.5441C81.3279 20.9601 81.6319 21.296 82.0159 21.552C82.3999 21.776 82.8479 21.9361 83.3599 22.0321C83.8719 22.1281 84.3999 22.1761 84.9439 22.1761C86.2879 22.1761 87.3279 21.9521 88.0639 21.5041C88.7999 21.0561 89.3439 20.528 89.6959 19.92C90.0479 19.28 90.2559 18.64 90.3199 18C90.4159 17.36 90.4639 16.8481 90.4639 16.4641V13.92Z" fill="#54370C"/>
<path d="M113.898 20.208C114.858 20.208 115.706 20.016 116.442 19.632C117.178 19.248 117.786 18.7361 118.266 18.0961C118.746 17.4561 119.098 16.7361 119.322 15.9361C119.578 15.1041 119.706 14.24 119.706 13.344C119.706 12.32 119.61 11.3601 119.418 10.4641C119.226 9.53605 118.906 8.72005 118.458 8.01605C118.01 7.31205 117.418 6.75205 116.682 6.33605C115.946 5.92005 115.018 5.71205 113.898 5.71205C112.938 5.71205 112.106 5.90405 111.402 6.28805C110.73 6.67205 110.154 7.20005 109.674 7.87205C109.226 8.51205 108.89 9.26405 108.666 10.128C108.474 10.96 108.378 11.84 108.378 12.7681C108.378 13.6641 108.458 14.5601 108.618 15.456C108.81 16.3201 109.114 17.1041 109.53 17.8081C109.978 18.5121 110.554 19.0881 111.258 19.5361C111.962 19.9841 112.842 20.208 113.898 20.208ZM126.186 24.4801C126.186 25.4721 126.042 26.608 125.754 27.8881C125.498 29.1681 124.922 30.3521 124.026 31.4401C123.13 32.5601 121.834 33.504 120.138 34.272C118.442 35.04 116.17 35.424 113.322 35.424C112.106 35.424 110.858 35.2641 109.578 34.944C108.33 34.6561 107.178 34.1921 106.122 33.5521C105.098 32.9121 104.234 32.0801 103.53 31.0561C102.858 30.0641 102.474 28.8641 102.378 27.4561H109.146C109.466 28.7361 110.09 29.6161 111.018 30.0961C111.946 30.6081 113.018 30.864 114.234 30.864C116.154 30.864 117.546 30.2881 118.41 29.1361C119.306 27.9841 119.738 26.5281 119.706 24.7681V21.5041H119.61C118.874 22.8161 117.818 23.7921 116.442 24.4321C115.098 25.0401 113.674 25.3441 112.17 25.3441C110.314 25.3441 108.714 25.0241 107.37 24.3841C106.026 23.7121 104.922 22.8161 104.058 21.6961C103.194 20.5441 102.554 19.216 102.138 17.712C101.754 16.176 101.562 14.56 101.562 12.864C101.562 11.264 101.786 9.72805 102.234 8.25605C102.714 6.75205 103.402 5.44005 104.298 4.32005C105.194 3.16805 106.298 2.25605 107.61 1.58405C108.954 0.912049 110.49 0.57605 112.218 0.57605C113.85 0.57605 115.274 0.88005 116.49 1.48805C117.738 2.09605 118.778 3.12005 119.61 4.56005H119.706V1.24805H126.186V24.4801Z" fill="#54370C"/>
<path d="M131.146 8.88005C131.242 7.28005 131.642 5.95205 132.346 4.89605C133.05 3.84005 133.946 2.99205 135.034 2.35205C136.122 1.71205 137.338 1.26405 138.682 1.00805C140.058 0.72005 141.434 0.57605 142.81 0.57605C144.058 0.57605 145.322 0.67205 146.602 0.864049C147.882 1.02405 149.05 1.36005 150.106 1.87205C151.162 2.38405 152.026 3.10405 152.698 4.03205C153.37 4.92805 153.706 6.12805 153.706 7.63205V20.5441C153.706 21.6641 153.77 22.736 153.898 23.76C154.026 24.784 154.25 25.5521 154.57 26.0641H147.658C147.53 25.6801 147.418 25.2961 147.322 24.9121C147.258 24.4961 147.21 24.0801 147.178 23.6641C146.09 24.7841 144.81 25.5681 143.338 26.0161C141.866 26.4641 140.362 26.6881 138.826 26.6881C137.642 26.6881 136.538 26.5441 135.514 26.2561C134.49 25.9681 133.594 25.5201 132.826 24.9121C132.058 24.3041 131.45 23.5361 131.002 22.6081C130.586 21.6801 130.378 20.5761 130.378 19.2961C130.378 17.8881 130.618 16.7361 131.098 15.84C131.61 14.912 132.25 14.1761 133.018 13.6321C133.818 13.088 134.714 12.6881 135.706 12.4321C136.73 12.1441 137.754 11.92 138.778 11.76C139.802 11.6 140.81 11.472 141.802 11.376C142.794 11.28 143.674 11.1361 144.442 10.944C145.21 10.7521 145.818 10.4801 146.266 10.128C146.714 9.74405 146.922 9.20005 146.89 8.49605C146.89 7.76005 146.762 7.18405 146.506 6.76805C146.282 6.32005 145.962 5.98405 145.546 5.76005C145.162 5.50405 144.698 5.34405 144.154 5.28005C143.642 5.18405 143.082 5.13605 142.474 5.13605C141.13 5.13605 140.074 5.42405 139.306 6.00005C138.538 6.57605 138.09 7.53605 137.962 8.88005H131.146ZM146.89 13.92C146.602 14.1761 146.234 14.3841 145.786 14.5441C145.37 14.672 144.906 14.7841 144.394 14.8801C143.914 14.9761 143.402 15.0561 142.858 15.1201C142.314 15.1841 141.77 15.2641 141.226 15.3601C140.714 15.456 140.202 15.5841 139.69 15.7441C139.21 15.9041 138.778 16.128 138.394 16.416C138.042 16.672 137.754 17.008 137.53 17.424C137.306 17.84 137.194 18.3681 137.194 19.0081C137.194 19.6161 137.306 20.1281 137.53 20.5441C137.754 20.9601 138.058 21.296 138.442 21.552C138.826 21.776 139.274 21.9361 139.786 22.0321C140.298 22.1281 140.826 22.1761 141.37 22.1761C142.714 22.1761 143.754 21.9521 144.49 21.5041C145.226 21.0561 145.77 20.528 146.122 19.92C146.474 19.28 146.682 18.64 146.746 18C146.842 17.36 146.89 16.8481 146.89 16.4641V13.92Z" fill="#54370C"/>
<path d="M158.949 1.24805H165.381V4.60805H165.477C166.373 3.32805 167.445 2.33605 168.693 1.63205C169.973 0.92805 171.429 0.57605 173.061 0.57605C174.629 0.57605 176.053 0.88005 177.333 1.48805C178.645 2.09605 179.637 3.16805 180.309 4.70405C181.045 3.61605 182.037 2.65605 183.285 1.82405C184.565 0.99205 186.069 0.57605 187.797 0.57605C189.109 0.57605 190.325 0.73605 191.445 1.05605C192.565 1.37605 193.525 1.88805 194.325 2.59205C195.125 3.29605 195.749 4.22405 196.197 5.37605C196.645 6.49605 196.869 7.85605 196.869 9.45605V26.0641H190.053V12C190.053 11.168 190.021 10.3841 189.957 9.64805C189.893 8.91205 189.717 8.27205 189.429 7.72805C189.141 7.18405 188.709 6.75205 188.133 6.43205C187.589 6.11205 186.837 5.95205 185.877 5.95205C184.917 5.95205 184.133 6.14405 183.525 6.52805C182.949 6.88005 182.485 7.36005 182.133 7.96805C181.813 8.54405 181.589 9.21605 181.461 9.98405C181.365 10.7201 181.317 11.472 181.317 12.24V26.0641H174.501V12.144C174.501 11.408 174.485 10.6881 174.453 9.98405C174.421 9.24805 174.277 8.57605 174.021 7.96805C173.797 7.36005 173.397 6.88005 172.821 6.52805C172.277 6.14405 171.461 5.95205 170.373 5.95205C170.053 5.95205 169.621 6.03205 169.077 6.19205C168.565 6.32005 168.053 6.59205 167.541 7.00805C167.061 7.39205 166.645 7.96805 166.293 8.73605C165.941 9.47205 165.765 10.448 165.765 11.6641V26.0641H158.949V1.24805Z" fill="#54370C"/>
<path d="M202.209 1.24805H208.641V4.60805H208.737C209.633 3.32805 210.705 2.33605 211.953 1.63205C213.233 0.92805 214.689 0.57605 216.321 0.57605C217.889 0.57605 219.313 0.88005 220.593 1.48805C221.905 2.09605 222.897 3.16805 223.569 4.70405C224.305 3.61605 225.297 2.65605 226.545 1.82405C227.825 0.99205 229.329 0.57605 231.057 0.57605C232.369 0.57605 233.585 0.73605 234.705 1.05605C235.825 1.37605 236.785 1.88805 237.585 2.59205C238.385 3.29605 239.009 4.22405 239.457 5.37605C239.905 6.49605 240.129 7.85605 240.129 9.45605V26.0641H233.313V12C233.313 11.168 233.281 10.3841 233.217 9.64805C233.153 8.91205 232.977 8.27205 232.689 7.72805C232.401 7.18405 231.969 6.75205 231.393 6.43205C230.849 6.11205 230.097 5.95205 229.137 5.95205C228.177 5.95205 227.393 6.14405 226.785 6.52805C226.209 6.88005 225.745 7.36005 225.393 7.96805C225.073 8.54405 224.849 9.21605 224.721 9.98405C224.625 10.7201 224.577 11.472 224.577 12.24V26.0641H217.761V12.144C217.761 11.408 217.745 10.6881 217.713 9.98405C217.681 9.24805 217.537 8.57605 217.281 7.96805C217.057 7.36005 216.657 6.88005 216.081 6.52805C215.537 6.14405 214.721 5.95205 213.633 5.95205C213.313 5.95205 212.881 6.03205 212.337 6.19205C211.825 6.32005 211.313 6.59205 210.801 7.00805C210.321 7.39205 209.905 7.96805 209.553 8.73605C209.201 9.47205 209.025 10.448 209.025 11.6641V26.0641H202.209V1.24805Z" fill="#54370C"/>
<path d="M244.989 8.88005C245.085 7.28005 245.485 5.95205 246.189 4.89605C246.893 3.84005 247.789 2.99205 248.877 2.35205C249.965 1.71205 251.181 1.26405 252.525 1.00805C253.901 0.72005 255.277 0.57605 256.653 0.57605C257.901 0.57605 259.165 0.67205 260.445 0.864049C261.725 1.02405 262.893 1.36005 263.949 1.87205C265.005 2.38405 265.869 3.10405 266.541 4.03205C267.213 4.92805 267.549 6.12805 267.549 7.63205V20.5441C267.549 21.6641 267.613 22.736 267.741 23.76C267.869 24.784 268.093 25.5521 268.413 26.0641H261.501C261.373 25.6801 261.261 25.2961 261.165 24.9121C261.101 24.4961 261.053 24.0801 261.021 23.6641C259.933 24.7841 258.653 25.5681 257.181 26.0161C255.709 26.4641 254.205 26.6881 252.669 26.6881C251.485 26.6881 250.381 26.5441 249.357 26.2561C248.333 25.9681 247.437 25.5201 246.669 24.9121C245.901 24.3041 245.293 23.5361 244.845 22.6081C244.429 21.6801 244.221 20.5761 244.221 19.2961C244.221 17.8881 244.461 16.7361 244.941 15.84C245.453 14.912 246.093 14.1761 246.861 13.6321C247.661 13.088 248.557 12.6881 249.549 12.4321C250.573 12.1441 251.597 11.92 252.621 11.76C253.645 11.6 254.653 11.472 255.645 11.376C256.637 11.28 257.517 11.1361 258.285 10.944C259.053 10.7521 259.661 10.4801 260.109 10.128C260.557 9.74405 260.765 9.20005 260.733 8.49605C260.733 7.76005 260.605 7.18405 260.349 6.76805C260.125 6.32005 259.805 5.98405 259.389 5.76005C259.005 5.50405 258.541 5.34405 257.997 5.28005C257.485 5.18405 256.925 5.13605 256.317 5.13605C254.973 5.13605 253.917 5.42405 253.149 6.00005C252.381 6.57605 251.933 7.53605 251.805 8.88005H244.989ZM260.733 13.92C260.445 14.1761 260.077 14.3841 259.629 14.5441C259.213 14.672 258.749 14.7841 258.237 14.8801C257.757 14.9761 257.245 15.0561 256.701 15.1201C256.157 15.1841 255.613 15.2641 255.069 15.3601C254.557 15.456 254.045 15.5841 253.533 15.7441C253.053 15.9041 252.621 16.128 252.237 16.416C251.885 16.672 251.597 17.008 251.373 17.424C251.149 17.84 251.037 18.3681 251.037 19.0081C251.037 19.6161 251.149 20.1281 251.373 20.5441C251.597 20.9601 251.901 21.296 252.285 21.552C252.669 21.776 253.117 21.9361 253.629 22.0321C254.141 22.1281 254.669 22.1761 255.213 22.1761C256.557 22.1761 257.597 21.9521 258.333 21.5041C259.069 21.0561 259.613 20.528 259.965 19.92C260.317 19.28 260.525 18.64 260.589 18C260.685 17.36 260.733 16.8481 260.733 16.4641V13.92Z" fill="#54370C"/>
</svg>
