<svg width="174" height="37" viewBox="0 0 174 37" fill="none" xmlns="http://www.w3.org/2000/svg">
<mask id="path-1-outside-1_216_41" maskUnits="userSpaceOnUse" x="-1" y="0.359985" width="175" height="37" fill="black">
<rect fill="white" x="-1" y="0.359985" width="175" height="37"/>
<path d="M0 35.344H0.816C1.44 35.344 1.872 35.152 2.112 34.768C2.352 34.384 2.544 34 2.64 33.616L8.496 5.63199L8.16 3.85599C8.496 3.85599 8.736 3.71199 8.928 3.42399C9.12 3.18399 9.264 2.89599 9.36 2.55999C9.456 2.22399 9.504 1.83999 9.552 1.35999H9.984L16.464 34.432C16.56 35.056 16.848 35.344 17.424 35.344H18.144V35.824H12.528V35.344H13.344C13.92 35.344 14.112 35.008 13.968 34.24L12 24.112H5.088L3.12 33.472C2.928 34.144 3.024 34.624 3.312 34.912C3.6 35.2 4.032 35.344 4.608 35.344H5.664V35.824H0V35.344ZM5.232 23.632H11.952L8.736 7.02399L5.232 23.632Z"/>
<path d="M16.2656 2.70399V2.22399H21.9296V2.70399H21.7376C20.6816 2.70399 20.2016 3.27999 20.2016 4.43199V25.696C20.2016 28.672 20.5376 30.88 21.3056 32.32C22.0256 33.76 23.0816 34.48 24.4256 34.48C24.8096 34.48 25.2896 34.384 25.7696 34.144C26.2496 33.952 26.6816 33.52 27.1136 32.896C27.5456 32.32 27.9296 31.456 28.2176 30.4C28.5056 29.344 28.6496 28 28.6496 26.32V4.33599C28.6016 3.80799 28.4576 3.42399 28.2656 3.13599C28.0736 2.84799 27.6896 2.70399 27.1136 2.70399H26.0576V2.22399H31.7216V2.70399H30.6656C30.0416 2.70399 29.6096 2.84799 29.4176 3.13599C29.2256 3.42399 29.1296 3.80799 29.1296 4.33599V26.32C29.1296 28.336 28.9376 29.968 28.6496 31.216C28.3136 32.512 27.8816 33.52 27.4016 34.24C26.8736 35.008 26.2976 35.488 25.6736 35.776C25.0016 36.064 24.3776 36.208 23.7536 36.208C22.8896 36.208 22.1216 36.064 21.4496 35.776C20.7296 35.488 20.1056 34.96 19.6256 34.192C19.0976 33.424 18.7136 32.32 18.4256 30.976C18.1376 29.632 17.9936 27.856 17.9936 25.696L18.0416 4.43199C18.0416 3.27999 17.5136 2.70399 16.4576 2.70399H16.2656Z"/>
<path d="M31.2188 35.344H31.4107C31.9867 35.344 32.4187 35.248 32.6107 34.96C32.8027 34.672 32.9468 34.288 32.9948 33.712V4.28799C32.9468 3.75999 32.8027 3.37599 32.6107 3.08799C32.4187 2.84799 31.9867 2.70399 31.4107 2.70399H31.2188V2.22399H38.1787C39.1387 2.22399 40.0988 2.41599 41.0588 2.75199C42.0188 3.08799 42.9307 3.61599 43.6987 4.28799C44.4667 4.95999 45.1388 5.87199 45.6188 6.92799C46.0988 7.98399 46.3867 9.27999 46.3867 10.72C46.3867 13.456 45.6187 15.616 44.1307 17.248C42.6427 18.88 40.7227 19.696 38.3228 19.696L44.8027 31.408C44.9467 31.696 45.0907 31.936 45.2347 32.128C45.3787 32.368 45.5227 32.608 45.7147 32.848L51.4268 5.63199L51.0908 3.85599C51.4268 3.85599 51.6667 3.71199 51.8587 3.42399C52.0507 3.18399 52.1948 2.89599 52.2908 2.55999C52.3868 2.22399 52.4348 1.83999 52.4827 1.35999H52.9147L59.3947 34.432C59.4908 35.056 59.7788 35.344 60.3548 35.344H61.0748V35.824H55.4588V35.344H56.2747C56.8508 35.344 57.0428 35.008 56.8988 34.24L54.9308 24.112H48.0667L46.0508 33.424C46.4348 34 46.7708 34.432 47.1548 34.816C47.5388 35.2 47.9228 35.344 48.3548 35.344H48.5947V35.824H45.9067C45.2347 35.824 44.8028 35.584 44.5628 35.008L44.2267 34.384C44.1307 34.192 43.9868 33.952 43.8428 33.712L35.1548 18.64V33.616C35.1548 34.192 35.2507 34.624 35.4427 34.912C35.6347 35.2 36.0668 35.344 36.6908 35.344V35.824H31.2188V35.344ZM35.1548 18.064C35.3468 18.352 35.6348 18.592 36.1147 18.88C36.5948 19.168 37.2667 19.264 38.1787 19.264C38.6587 19.264 39.2348 19.168 39.9548 18.976C40.6268 18.784 41.2987 18.4 41.9707 17.776C42.6427 17.2 43.1707 16.336 43.6507 15.184C44.0827 14.08 44.3228 12.592 44.3228 10.72C44.3228 8.89599 44.0827 7.45599 43.6507 6.39999C43.1707 5.34399 42.6427 4.57599 41.9707 3.99999C41.2987 3.42399 40.6268 3.08799 39.9548 2.94398C39.2348 2.79999 38.6587 2.70399 38.1787 2.70399H35.5387C35.2507 2.70399 35.1548 2.84799 35.1548 3.08799V18.064ZM48.1628 23.632H54.8828L51.6668 7.02399L48.1628 23.632Z"/>
<path d="M74.0156 35.344H74.8316C75.4556 35.344 75.8876 35.152 76.1276 34.768C76.3676 34.384 76.5596 34 76.6556 33.616L82.5116 5.63199L82.1756 3.85599C82.5116 3.85599 82.7516 3.71199 82.9436 3.42399C83.1356 3.18399 83.2796 2.89599 83.3756 2.55999C83.4716 2.22399 83.5196 1.83999 83.5676 1.35999H83.9996L90.4796 34.432C90.5756 35.056 90.8636 35.344 91.4396 35.344H92.1596V35.824H86.5436V35.344H87.3596C87.9356 35.344 88.1276 35.008 87.9836 34.24L86.0156 24.112H79.1036L77.1356 33.472C76.9436 34.144 77.0396 34.624 77.3276 34.912C77.6156 35.2 78.0476 35.344 78.6236 35.344H79.6796V35.824H74.0156V35.344ZM79.2476 23.632H85.9676L82.7516 7.02399L79.2476 23.632Z"/>
<path d="M90.2812 2.70399V2.22399H95.9453V2.70399H95.7533C94.6973 2.70399 94.2172 3.27999 94.2172 4.43199V25.696C94.2172 28.672 94.5533 30.88 95.3213 32.32C96.0413 33.76 97.0973 34.48 98.4413 34.48C98.8253 34.48 99.3052 34.384 99.7852 34.144C100.265 33.952 100.697 33.52 101.129 32.896C101.561 32.32 101.945 31.456 102.233 30.4C102.521 29.344 102.665 28 102.665 26.32V4.33599C102.617 3.80799 102.473 3.42399 102.281 3.13599C102.089 2.84799 101.705 2.70399 101.129 2.70399H100.073V2.22399H105.737V2.70399H104.681C104.057 2.70399 103.625 2.84799 103.433 3.13599C103.241 3.42399 103.145 3.80799 103.145 4.33599V26.32C103.145 28.336 102.953 29.968 102.665 31.216C102.329 32.512 101.897 33.52 101.417 34.24C100.889 35.008 100.313 35.488 99.6892 35.776C99.0172 36.064 98.3932 36.208 97.7692 36.208C96.9052 36.208 96.1372 36.064 95.4652 35.776C94.7452 35.488 94.1213 34.96 93.6413 34.192C93.1133 33.424 92.7293 32.32 92.4413 30.976C92.1533 29.632 92.0092 27.856 92.0092 25.696L92.0573 4.43199C92.0573 3.27999 91.5293 2.70399 90.4733 2.70399H90.2812Z"/>
<path d="M112.53 1.83999C113.346 1.83999 114.066 2.03199 114.642 2.41599C115.218 2.79999 115.698 3.13599 116.034 3.47199C116.274 3.75999 116.514 3.85599 116.802 3.85599C117.042 3.85599 117.282 3.71199 117.522 3.42399C117.714 3.13599 117.858 2.60799 117.954 1.83999L119.538 14.368C119.442 14.416 119.346 14.416 119.298 14.416C119.202 14.416 119.154 14.464 119.058 14.464C118.914 13.408 118.77 12.496 118.674 11.776C118.53 11.104 118.386 10.48 118.29 9.99999C118.146 9.51999 118.002 9.03999 117.906 8.65599C117.762 8.27199 117.618 7.88799 117.474 7.45599C116.898 5.87199 116.13 4.62399 115.266 3.71199C114.354 2.79999 113.442 2.31999 112.53 2.31999C112.05 2.31999 111.474 2.55999 110.898 2.94398C110.274 3.32799 109.698 4.14399 109.17 5.34399C108.642 6.54399 108.21 8.22399 107.826 10.432C107.442 12.64 107.298 15.472 107.298 19.024C107.298 22.576 107.442 25.456 107.826 27.664C108.21 29.872 108.642 31.552 109.17 32.704C109.698 33.904 110.274 34.72 110.898 35.104C111.474 35.488 112.05 35.68 112.53 35.68C113.442 35.68 114.258 35.2 115.026 34.24C115.794 33.28 116.514 32.032 117.186 30.448C117.378 29.968 117.57 29.536 117.762 29.056C117.954 28.576 118.098 28.048 118.242 27.424C118.386 26.848 118.53 26.08 118.722 25.216C118.866 24.352 119.01 23.296 119.202 22C119.298 22.048 119.49 22.048 119.682 22.048L118.098 36.64C118.002 35.872 117.858 35.296 117.618 34.96C117.33 34.672 117.042 34.48 116.754 34.48C116.466 34.48 116.226 34.576 115.938 34.768L114.546 35.68C114.018 36.064 113.346 36.208 112.53 36.208C111.57 36.208 110.658 35.92 109.794 35.296C108.93 34.72 108.162 33.712 107.49 32.368C106.818 31.024 106.242 29.248 105.858 27.04C105.426 24.88 105.234 22.192 105.234 19.024C105.234 15.856 105.426 13.216 105.858 11.008C106.242 8.84799 106.818 7.07199 107.49 5.72799C108.162 4.38399 108.93 3.37599 109.794 2.75199C110.658 2.17599 111.57 1.83999 112.53 1.83999Z"/>
<path d="M122.337 1.35999C122.385 1.55199 122.481 1.69599 122.673 1.79199C122.817 1.88799 123.009 1.98399 123.249 2.07999C123.441 2.17599 123.777 2.22399 124.161 2.22399H134.385C134.769 2.22399 135.057 2.17599 135.297 2.07999C135.537 1.98399 135.729 1.88799 135.873 1.79199C136.017 1.69599 136.113 1.55199 136.209 1.35999L137.937 12.256L137.553 12.304L137.121 9.61599C136.737 7.35999 136.161 5.63199 135.393 4.47999C134.625 3.32799 133.617 2.70399 132.369 2.70399H132.081C131.553 2.70399 131.121 2.89599 130.833 3.27999C130.497 3.66399 130.353 4.14399 130.353 4.62399V33.616C130.353 34.192 130.449 34.624 130.689 34.912C130.881 35.2 131.313 35.344 131.889 35.344V35.824H126.657V35.344C127.233 35.344 127.617 35.2 127.857 34.912C128.049 34.624 128.193 34.192 128.193 33.616V4.62399C128.193 4.14399 128.001 3.66399 127.713 3.27999C127.377 2.89599 126.945 2.70399 126.417 2.70399H126.129C124.881 2.70399 123.921 3.32799 123.153 4.47999C122.385 5.63199 121.809 7.35999 121.425 9.61599L120.993 12.304L120.609 12.256L122.337 1.35999Z"/>
<path d="M137.953 2.22399H143.617V2.70399H143.425C142.369 2.70399 141.889 3.27999 141.889 4.43199V33.616C141.889 34.768 142.369 35.344 143.425 35.344H143.617V35.824H137.953V35.344H138.145C139.201 35.344 139.729 34.768 139.729 33.616V4.43199C139.729 3.27999 139.201 2.70399 138.145 2.70399H137.953V2.22399Z"/>
<path d="M143.625 19.024C143.625 15.856 143.817 13.216 144.249 11.008C144.633 8.84799 145.209 7.07199 145.881 5.72799C146.553 4.38399 147.321 3.37599 148.185 2.75199C149.049 2.17599 149.961 1.83999 150.921 1.83999C151.881 1.83999 152.793 2.17599 153.657 2.79999C154.521 3.42399 155.337 4.43199 156.009 5.77599C156.681 7.16799 157.257 8.94399 157.641 11.104C158.025 13.312 158.265 15.952 158.265 19.024C158.265 22.192 158.025 24.88 157.641 27.04C157.209 29.248 156.681 31.024 156.009 32.368C155.337 33.712 154.521 34.72 153.657 35.296C152.793 35.92 151.881 36.208 150.921 36.208C149.961 36.208 149.001 35.92 148.137 35.296C147.273 34.672 146.505 33.664 145.833 32.272C145.161 30.928 144.585 29.152 144.201 26.944C143.817 24.784 143.625 22.144 143.625 19.024ZM150.921 35.728C151.401 35.728 151.929 35.536 152.553 35.152C153.177 34.768 153.753 33.952 154.281 32.752C154.809 31.552 155.241 29.872 155.625 27.664C156.009 25.456 156.201 22.576 156.201 19.024C156.201 15.472 156.009 12.64 155.625 10.432C155.241 8.22399 154.809 6.54399 154.281 5.34399C153.753 4.19199 153.177 3.37599 152.553 2.99199C151.929 2.60799 151.401 2.36799 150.921 2.36799C150.441 2.36799 149.865 2.60799 149.289 2.99199C148.665 3.37599 148.089 4.19199 147.561 5.34399C147.033 6.54399 146.601 8.22399 146.217 10.432C145.833 12.64 145.689 15.472 145.689 19.024C145.689 22.576 145.833 25.456 146.217 27.664C146.601 29.872 147.033 31.552 147.561 32.752C148.089 33.952 148.665 34.768 149.289 35.152C149.865 35.536 150.441 35.728 150.921 35.728Z"/>
<path d="M159.306 35.344C159.882 35.344 160.314 35.248 160.506 34.96C160.698 34.672 160.842 34.288 160.842 33.712V4.33599C160.842 3.80799 160.698 3.42399 160.506 3.13599C160.314 2.84799 159.882 2.70399 159.306 2.70399H158.25V2.22399H162.57L170.586 28.384V4.33599C170.538 3.80799 170.394 3.42399 170.202 3.13599C170.01 2.84799 169.626 2.70399 169.05 2.70399H167.994V2.22399H173.658V2.70399H172.602C171.978 2.70399 171.546 2.84799 171.354 3.13599C171.162 3.42399 171.066 3.80799 171.066 4.33599V35.824H170.586L161.322 5.19999V33.712C161.322 34.288 161.418 34.672 161.658 34.96C161.85 35.248 162.282 35.344 162.858 35.344H163.914V35.824H158.25V35.344H159.306Z"/>
</mask>
<path d="M0 35.344H0.816C1.44 35.344 1.872 35.152 2.112 34.768C2.352 34.384 2.544 34 2.64 33.616L8.496 5.63199L8.16 3.85599C8.496 3.85599 8.736 3.71199 8.928 3.42399C9.12 3.18399 9.264 2.89599 9.36 2.55999C9.456 2.22399 9.504 1.83999 9.552 1.35999H9.984L16.464 34.432C16.56 35.056 16.848 35.344 17.424 35.344H18.144V35.824H12.528V35.344H13.344C13.92 35.344 14.112 35.008 13.968 34.24L12 24.112H5.088L3.12 33.472C2.928 34.144 3.024 34.624 3.312 34.912C3.6 35.2 4.032 35.344 4.608 35.344H5.664V35.824H0V35.344ZM5.232 23.632H11.952L8.736 7.02399L5.232 23.632Z" fill="#54370C"/>
<path d="M16.2656 2.70399V2.22399H21.9296V2.70399H21.7376C20.6816 2.70399 20.2016 3.27999 20.2016 4.43199V25.696C20.2016 28.672 20.5376 30.88 21.3056 32.32C22.0256 33.76 23.0816 34.48 24.4256 34.48C24.8096 34.48 25.2896 34.384 25.7696 34.144C26.2496 33.952 26.6816 33.52 27.1136 32.896C27.5456 32.32 27.9296 31.456 28.2176 30.4C28.5056 29.344 28.6496 28 28.6496 26.32V4.33599C28.6016 3.80799 28.4576 3.42399 28.2656 3.13599C28.0736 2.84799 27.6896 2.70399 27.1136 2.70399H26.0576V2.22399H31.7216V2.70399H30.6656C30.0416 2.70399 29.6096 2.84799 29.4176 3.13599C29.2256 3.42399 29.1296 3.80799 29.1296 4.33599V26.32C29.1296 28.336 28.9376 29.968 28.6496 31.216C28.3136 32.512 27.8816 33.52 27.4016 34.24C26.8736 35.008 26.2976 35.488 25.6736 35.776C25.0016 36.064 24.3776 36.208 23.7536 36.208C22.8896 36.208 22.1216 36.064 21.4496 35.776C20.7296 35.488 20.1056 34.96 19.6256 34.192C19.0976 33.424 18.7136 32.32 18.4256 30.976C18.1376 29.632 17.9936 27.856 17.9936 25.696L18.0416 4.43199C18.0416 3.27999 17.5136 2.70399 16.4576 2.70399H16.2656Z" fill="#54370C"/>
<path d="M31.2188 35.344H31.4107C31.9867 35.344 32.4187 35.248 32.6107 34.96C32.8027 34.672 32.9468 34.288 32.9948 33.712V4.28799C32.9468 3.75999 32.8027 3.37599 32.6107 3.08799C32.4187 2.84799 31.9867 2.70399 31.4107 2.70399H31.2188V2.22399H38.1787C39.1387 2.22399 40.0988 2.41599 41.0588 2.75199C42.0188 3.08799 42.9307 3.61599 43.6987 4.28799C44.4667 4.95999 45.1388 5.87199 45.6188 6.92799C46.0988 7.98399 46.3867 9.27999 46.3867 10.72C46.3867 13.456 45.6187 15.616 44.1307 17.248C42.6427 18.88 40.7227 19.696 38.3228 19.696L44.8027 31.408C44.9467 31.696 45.0907 31.936 45.2347 32.128C45.3787 32.368 45.5227 32.608 45.7147 32.848L51.4268 5.63199L51.0908 3.85599C51.4268 3.85599 51.6667 3.71199 51.8587 3.42399C52.0507 3.18399 52.1948 2.89599 52.2908 2.55999C52.3868 2.22399 52.4348 1.83999 52.4827 1.35999H52.9147L59.3947 34.432C59.4908 35.056 59.7788 35.344 60.3548 35.344H61.0748V35.824H55.4588V35.344H56.2747C56.8508 35.344 57.0428 35.008 56.8988 34.24L54.9308 24.112H48.0667L46.0508 33.424C46.4348 34 46.7708 34.432 47.1548 34.816C47.5388 35.2 47.9228 35.344 48.3548 35.344H48.5947V35.824H45.9067C45.2347 35.824 44.8028 35.584 44.5628 35.008L44.2267 34.384C44.1307 34.192 43.9868 33.952 43.8428 33.712L35.1548 18.64V33.616C35.1548 34.192 35.2507 34.624 35.4427 34.912C35.6347 35.2 36.0668 35.344 36.6908 35.344V35.824H31.2188V35.344ZM35.1548 18.064C35.3468 18.352 35.6348 18.592 36.1147 18.88C36.5948 19.168 37.2667 19.264 38.1787 19.264C38.6587 19.264 39.2348 19.168 39.9548 18.976C40.6268 18.784 41.2987 18.4 41.9707 17.776C42.6427 17.2 43.1707 16.336 43.6507 15.184C44.0827 14.08 44.3228 12.592 44.3228 10.72C44.3228 8.89599 44.0827 7.45599 43.6507 6.39999C43.1707 5.34399 42.6427 4.57599 41.9707 3.99999C41.2987 3.42399 40.6268 3.08799 39.9548 2.94398C39.2348 2.79999 38.6587 2.70399 38.1787 2.70399H35.5387C35.2507 2.70399 35.1548 2.84799 35.1548 3.08799V18.064ZM48.1628 23.632H54.8828L51.6668 7.02399L48.1628 23.632Z" fill="#54370C"/>
<path d="M74.0156 35.344H74.8316C75.4556 35.344 75.8876 35.152 76.1276 34.768C76.3676 34.384 76.5596 34 76.6556 33.616L82.5116 5.63199L82.1756 3.85599C82.5116 3.85599 82.7516 3.71199 82.9436 3.42399C83.1356 3.18399 83.2796 2.89599 83.3756 2.55999C83.4716 2.22399 83.5196 1.83999 83.5676 1.35999H83.9996L90.4796 34.432C90.5756 35.056 90.8636 35.344 91.4396 35.344H92.1596V35.824H86.5436V35.344H87.3596C87.9356 35.344 88.1276 35.008 87.9836 34.24L86.0156 24.112H79.1036L77.1356 33.472C76.9436 34.144 77.0396 34.624 77.3276 34.912C77.6156 35.2 78.0476 35.344 78.6236 35.344H79.6796V35.824H74.0156V35.344ZM79.2476 23.632H85.9676L82.7516 7.02399L79.2476 23.632Z" fill="#54370C"/>
<path d="M90.2812 2.70399V2.22399H95.9453V2.70399H95.7533C94.6973 2.70399 94.2172 3.27999 94.2172 4.43199V25.696C94.2172 28.672 94.5533 30.88 95.3213 32.32C96.0413 33.76 97.0973 34.48 98.4413 34.48C98.8253 34.48 99.3052 34.384 99.7852 34.144C100.265 33.952 100.697 33.52 101.129 32.896C101.561 32.32 101.945 31.456 102.233 30.4C102.521 29.344 102.665 28 102.665 26.32V4.33599C102.617 3.80799 102.473 3.42399 102.281 3.13599C102.089 2.84799 101.705 2.70399 101.129 2.70399H100.073V2.22399H105.737V2.70399H104.681C104.057 2.70399 103.625 2.84799 103.433 3.13599C103.241 3.42399 103.145 3.80799 103.145 4.33599V26.32C103.145 28.336 102.953 29.968 102.665 31.216C102.329 32.512 101.897 33.52 101.417 34.24C100.889 35.008 100.313 35.488 99.6892 35.776C99.0172 36.064 98.3932 36.208 97.7692 36.208C96.9052 36.208 96.1372 36.064 95.4652 35.776C94.7452 35.488 94.1213 34.96 93.6413 34.192C93.1133 33.424 92.7293 32.32 92.4413 30.976C92.1533 29.632 92.0092 27.856 92.0092 25.696L92.0573 4.43199C92.0573 3.27999 91.5293 2.70399 90.4733 2.70399H90.2812Z" fill="#54370C"/>
<path d="M112.53 1.83999C113.346 1.83999 114.066 2.03199 114.642 2.41599C115.218 2.79999 115.698 3.13599 116.034 3.47199C116.274 3.75999 116.514 3.85599 116.802 3.85599C117.042 3.85599 117.282 3.71199 117.522 3.42399C117.714 3.13599 117.858 2.60799 117.954 1.83999L119.538 14.368C119.442 14.416 119.346 14.416 119.298 14.416C119.202 14.416 119.154 14.464 119.058 14.464C118.914 13.408 118.77 12.496 118.674 11.776C118.53 11.104 118.386 10.48 118.29 9.99999C118.146 9.51999 118.002 9.03999 117.906 8.65599C117.762 8.27199 117.618 7.88799 117.474 7.45599C116.898 5.87199 116.13 4.62399 115.266 3.71199C114.354 2.79999 113.442 2.31999 112.53 2.31999C112.05 2.31999 111.474 2.55999 110.898 2.94398C110.274 3.32799 109.698 4.14399 109.17 5.34399C108.642 6.54399 108.21 8.22399 107.826 10.432C107.442 12.64 107.298 15.472 107.298 19.024C107.298 22.576 107.442 25.456 107.826 27.664C108.21 29.872 108.642 31.552 109.17 32.704C109.698 33.904 110.274 34.72 110.898 35.104C111.474 35.488 112.05 35.68 112.53 35.68C113.442 35.68 114.258 35.2 115.026 34.24C115.794 33.28 116.514 32.032 117.186 30.448C117.378 29.968 117.57 29.536 117.762 29.056C117.954 28.576 118.098 28.048 118.242 27.424C118.386 26.848 118.53 26.08 118.722 25.216C118.866 24.352 119.01 23.296 119.202 22C119.298 22.048 119.49 22.048 119.682 22.048L118.098 36.64C118.002 35.872 117.858 35.296 117.618 34.96C117.33 34.672 117.042 34.48 116.754 34.48C116.466 34.48 116.226 34.576 115.938 34.768L114.546 35.68C114.018 36.064 113.346 36.208 112.53 36.208C111.57 36.208 110.658 35.92 109.794 35.296C108.93 34.72 108.162 33.712 107.49 32.368C106.818 31.024 106.242 29.248 105.858 27.04C105.426 24.88 105.234 22.192 105.234 19.024C105.234 15.856 105.426 13.216 105.858 11.008C106.242 8.84799 106.818 7.07199 107.49 5.72799C108.162 4.38399 108.93 3.37599 109.794 2.75199C110.658 2.17599 111.57 1.83999 112.53 1.83999Z" fill="#54370C"/>
<path d="M122.337 1.35999C122.385 1.55199 122.481 1.69599 122.673 1.79199C122.817 1.88799 123.009 1.98399 123.249 2.07999C123.441 2.17599 123.777 2.22399 124.161 2.22399H134.385C134.769 2.22399 135.057 2.17599 135.297 2.07999C135.537 1.98399 135.729 1.88799 135.873 1.79199C136.017 1.69599 136.113 1.55199 136.209 1.35999L137.937 12.256L137.553 12.304L137.121 9.61599C136.737 7.35999 136.161 5.63199 135.393 4.47999C134.625 3.32799 133.617 2.70399 132.369 2.70399H132.081C131.553 2.70399 131.121 2.89599 130.833 3.27999C130.497 3.66399 130.353 4.14399 130.353 4.62399V33.616C130.353 34.192 130.449 34.624 130.689 34.912C130.881 35.2 131.313 35.344 131.889 35.344V35.824H126.657V35.344C127.233 35.344 127.617 35.2 127.857 34.912C128.049 34.624 128.193 34.192 128.193 33.616V4.62399C128.193 4.14399 128.001 3.66399 127.713 3.27999C127.377 2.89599 126.945 2.70399 126.417 2.70399H126.129C124.881 2.70399 123.921 3.32799 123.153 4.47999C122.385 5.63199 121.809 7.35999 121.425 9.61599L120.993 12.304L120.609 12.256L122.337 1.35999Z" fill="#54370C"/>
<path d="M137.953 2.22399H143.617V2.70399H143.425C142.369 2.70399 141.889 3.27999 141.889 4.43199V33.616C141.889 34.768 142.369 35.344 143.425 35.344H143.617V35.824H137.953V35.344H138.145C139.201 35.344 139.729 34.768 139.729 33.616V4.43199C139.729 3.27999 139.201 2.70399 138.145 2.70399H137.953V2.22399Z" fill="#54370C"/>
<path d="M143.625 19.024C143.625 15.856 143.817 13.216 144.249 11.008C144.633 8.84799 145.209 7.07199 145.881 5.72799C146.553 4.38399 147.321 3.37599 148.185 2.75199C149.049 2.17599 149.961 1.83999 150.921 1.83999C151.881 1.83999 152.793 2.17599 153.657 2.79999C154.521 3.42399 155.337 4.43199 156.009 5.77599C156.681 7.16799 157.257 8.94399 157.641 11.104C158.025 13.312 158.265 15.952 158.265 19.024C158.265 22.192 158.025 24.88 157.641 27.04C157.209 29.248 156.681 31.024 156.009 32.368C155.337 33.712 154.521 34.72 153.657 35.296C152.793 35.92 151.881 36.208 150.921 36.208C149.961 36.208 149.001 35.92 148.137 35.296C147.273 34.672 146.505 33.664 145.833 32.272C145.161 30.928 144.585 29.152 144.201 26.944C143.817 24.784 143.625 22.144 143.625 19.024ZM150.921 35.728C151.401 35.728 151.929 35.536 152.553 35.152C153.177 34.768 153.753 33.952 154.281 32.752C154.809 31.552 155.241 29.872 155.625 27.664C156.009 25.456 156.201 22.576 156.201 19.024C156.201 15.472 156.009 12.64 155.625 10.432C155.241 8.22399 154.809 6.54399 154.281 5.34399C153.753 4.19199 153.177 3.37599 152.553 2.99199C151.929 2.60799 151.401 2.36799 150.921 2.36799C150.441 2.36799 149.865 2.60799 149.289 2.99199C148.665 3.37599 148.089 4.19199 147.561 5.34399C147.033 6.54399 146.601 8.22399 146.217 10.432C145.833 12.64 145.689 15.472 145.689 19.024C145.689 22.576 145.833 25.456 146.217 27.664C146.601 29.872 147.033 31.552 147.561 32.752C148.089 33.952 148.665 34.768 149.289 35.152C149.865 35.536 150.441 35.728 150.921 35.728Z" fill="#54370C"/>
<path d="M159.306 35.344C159.882 35.344 160.314 35.248 160.506 34.96C160.698 34.672 160.842 34.288 160.842 33.712V4.33599C160.842 3.80799 160.698 3.42399 160.506 3.13599C160.314 2.84799 159.882 2.70399 159.306 2.70399H158.25V2.22399H162.57L170.586 28.384V4.33599C170.538 3.80799 170.394 3.42399 170.202 3.13599C170.01 2.84799 169.626 2.70399 169.05 2.70399H167.994V2.22399H173.658V2.70399H172.602C171.978 2.70399 171.546 2.84799 171.354 3.13599C171.162 3.42399 171.066 3.80799 171.066 4.33599V35.824H170.586L161.322 5.19999V33.712C161.322 34.288 161.418 34.672 161.658 34.96C161.85 35.248 162.282 35.344 162.858 35.344H163.914V35.824H158.25V35.344H159.306Z" fill="#54370C"/>
<path d="M0 35.344H0.816C1.44 35.344 1.872 35.152 2.112 34.768C2.352 34.384 2.544 34 2.64 33.616L8.496 5.63199L8.16 3.85599C8.496 3.85599 8.736 3.71199 8.928 3.42399C9.12 3.18399 9.264 2.89599 9.36 2.55999C9.456 2.22399 9.504 1.83999 9.552 1.35999H9.984L16.464 34.432C16.56 35.056 16.848 35.344 17.424 35.344H18.144V35.824H12.528V35.344H13.344C13.92 35.344 14.112 35.008 13.968 34.24L12 24.112H5.088L3.12 33.472C2.928 34.144 3.024 34.624 3.312 34.912C3.6 35.2 4.032 35.344 4.608 35.344H5.664V35.824H0V35.344ZM5.232 23.632H11.952L8.736 7.02399L5.232 23.632Z" stroke="#54370C" stroke-width="0.5" mask="url(#path-1-outside-1_216_41)"/>
<path d="M16.2656 2.70399V2.22399H21.9296V2.70399H21.7376C20.6816 2.70399 20.2016 3.27999 20.2016 4.43199V25.696C20.2016 28.672 20.5376 30.88 21.3056 32.32C22.0256 33.76 23.0816 34.48 24.4256 34.48C24.8096 34.48 25.2896 34.384 25.7696 34.144C26.2496 33.952 26.6816 33.52 27.1136 32.896C27.5456 32.32 27.9296 31.456 28.2176 30.4C28.5056 29.344 28.6496 28 28.6496 26.32V4.33599C28.6016 3.80799 28.4576 3.42399 28.2656 3.13599C28.0736 2.84799 27.6896 2.70399 27.1136 2.70399H26.0576V2.22399H31.7216V2.70399H30.6656C30.0416 2.70399 29.6096 2.84799 29.4176 3.13599C29.2256 3.42399 29.1296 3.80799 29.1296 4.33599V26.32C29.1296 28.336 28.9376 29.968 28.6496 31.216C28.3136 32.512 27.8816 33.52 27.4016 34.24C26.8736 35.008 26.2976 35.488 25.6736 35.776C25.0016 36.064 24.3776 36.208 23.7536 36.208C22.8896 36.208 22.1216 36.064 21.4496 35.776C20.7296 35.488 20.1056 34.96 19.6256 34.192C19.0976 33.424 18.7136 32.32 18.4256 30.976C18.1376 29.632 17.9936 27.856 17.9936 25.696L18.0416 4.43199C18.0416 3.27999 17.5136 2.70399 16.4576 2.70399H16.2656Z" stroke="#54370C" stroke-width="0.5" mask="url(#path-1-outside-1_216_41)"/>
<path d="M31.2188 35.344H31.4107C31.9867 35.344 32.4187 35.248 32.6107 34.96C32.8027 34.672 32.9468 34.288 32.9948 33.712V4.28799C32.9468 3.75999 32.8027 3.37599 32.6107 3.08799C32.4187 2.84799 31.9867 2.70399 31.4107 2.70399H31.2188V2.22399H38.1787C39.1387 2.22399 40.0988 2.41599 41.0588 2.75199C42.0188 3.08799 42.9307 3.61599 43.6987 4.28799C44.4667 4.95999 45.1388 5.87199 45.6188 6.92799C46.0988 7.98399 46.3867 9.27999 46.3867 10.72C46.3867 13.456 45.6187 15.616 44.1307 17.248C42.6427 18.88 40.7227 19.696 38.3228 19.696L44.8027 31.408C44.9467 31.696 45.0907 31.936 45.2347 32.128C45.3787 32.368 45.5227 32.608 45.7147 32.848L51.4268 5.63199L51.0908 3.85599C51.4268 3.85599 51.6667 3.71199 51.8587 3.42399C52.0507 3.18399 52.1948 2.89599 52.2908 2.55999C52.3868 2.22399 52.4348 1.83999 52.4827 1.35999H52.9147L59.3947 34.432C59.4908 35.056 59.7788 35.344 60.3548 35.344H61.0748V35.824H55.4588V35.344H56.2747C56.8508 35.344 57.0428 35.008 56.8988 34.24L54.9308 24.112H48.0667L46.0508 33.424C46.4348 34 46.7708 34.432 47.1548 34.816C47.5388 35.2 47.9228 35.344 48.3548 35.344H48.5947V35.824H45.9067C45.2347 35.824 44.8028 35.584 44.5628 35.008L44.2267 34.384C44.1307 34.192 43.9868 33.952 43.8428 33.712L35.1548 18.64V33.616C35.1548 34.192 35.2507 34.624 35.4427 34.912C35.6347 35.2 36.0668 35.344 36.6908 35.344V35.824H31.2188V35.344ZM35.1548 18.064C35.3468 18.352 35.6348 18.592 36.1147 18.88C36.5948 19.168 37.2667 19.264 38.1787 19.264C38.6587 19.264 39.2348 19.168 39.9548 18.976C40.6268 18.784 41.2987 18.4 41.9707 17.776C42.6427 17.2 43.1707 16.336 43.6507 15.184C44.0827 14.08 44.3228 12.592 44.3228 10.72C44.3228 8.89599 44.0827 7.45599 43.6507 6.39999C43.1707 5.34399 42.6427 4.57599 41.9707 3.99999C41.2987 3.42399 40.6268 3.08799 39.9548 2.94398C39.2348 2.79999 38.6587 2.70399 38.1787 2.70399H35.5387C35.2507 2.70399 35.1548 2.84799 35.1548 3.08799V18.064ZM48.1628 23.632H54.8828L51.6668 7.02399L48.1628 23.632Z" stroke="#54370C" stroke-width="0.5" mask="url(#path-1-outside-1_216_41)"/>
<path d="M74.0156 35.344H74.8316C75.4556 35.344 75.8876 35.152 76.1276 34.768C76.3676 34.384 76.5596 34 76.6556 33.616L82.5116 5.63199L82.1756 3.85599C82.5116 3.85599 82.7516 3.71199 82.9436 3.42399C83.1356 3.18399 83.2796 2.89599 83.3756 2.55999C83.4716 2.22399 83.5196 1.83999 83.5676 1.35999H83.9996L90.4796 34.432C90.5756 35.056 90.8636 35.344 91.4396 35.344H92.1596V35.824H86.5436V35.344H87.3596C87.9356 35.344 88.1276 35.008 87.9836 34.24L86.0156 24.112H79.1036L77.1356 33.472C76.9436 34.144 77.0396 34.624 77.3276 34.912C77.6156 35.2 78.0476 35.344 78.6236 35.344H79.6796V35.824H74.0156V35.344ZM79.2476 23.632H85.9676L82.7516 7.02399L79.2476 23.632Z" stroke="#54370C" stroke-width="0.5" mask="url(#path-1-outside-1_216_41)"/>
<path d="M90.2812 2.70399V2.22399H95.9453V2.70399H95.7533C94.6973 2.70399 94.2172 3.27999 94.2172 4.43199V25.696C94.2172 28.672 94.5533 30.88 95.3213 32.32C96.0413 33.76 97.0973 34.48 98.4413 34.48C98.8253 34.48 99.3052 34.384 99.7852 34.144C100.265 33.952 100.697 33.52 101.129 32.896C101.561 32.32 101.945 31.456 102.233 30.4C102.521 29.344 102.665 28 102.665 26.32V4.33599C102.617 3.80799 102.473 3.42399 102.281 3.13599C102.089 2.84799 101.705 2.70399 101.129 2.70399H100.073V2.22399H105.737V2.70399H104.681C104.057 2.70399 103.625 2.84799 103.433 3.13599C103.241 3.42399 103.145 3.80799 103.145 4.33599V26.32C103.145 28.336 102.953 29.968 102.665 31.216C102.329 32.512 101.897 33.52 101.417 34.24C100.889 35.008 100.313 35.488 99.6892 35.776C99.0172 36.064 98.3932 36.208 97.7692 36.208C96.9052 36.208 96.1372 36.064 95.4652 35.776C94.7452 35.488 94.1213 34.96 93.6413 34.192C93.1133 33.424 92.7293 32.32 92.4413 30.976C92.1533 29.632 92.0092 27.856 92.0092 25.696L92.0573 4.43199C92.0573 3.27999 91.5293 2.70399 90.4733 2.70399H90.2812Z" stroke="#54370C" stroke-width="0.5" mask="url(#path-1-outside-1_216_41)"/>
<path d="M112.53 1.83999C113.346 1.83999 114.066 2.03199 114.642 2.41599C115.218 2.79999 115.698 3.13599 116.034 3.47199C116.274 3.75999 116.514 3.85599 116.802 3.85599C117.042 3.85599 117.282 3.71199 117.522 3.42399C117.714 3.13599 117.858 2.60799 117.954 1.83999L119.538 14.368C119.442 14.416 119.346 14.416 119.298 14.416C119.202 14.416 119.154 14.464 119.058 14.464C118.914 13.408 118.77 12.496 118.674 11.776C118.53 11.104 118.386 10.48 118.29 9.99999C118.146 9.51999 118.002 9.03999 117.906 8.65599C117.762 8.27199 117.618 7.88799 117.474 7.45599C116.898 5.87199 116.13 4.62399 115.266 3.71199C114.354 2.79999 113.442 2.31999 112.53 2.31999C112.05 2.31999 111.474 2.55999 110.898 2.94398C110.274 3.32799 109.698 4.14399 109.17 5.34399C108.642 6.54399 108.21 8.22399 107.826 10.432C107.442 12.64 107.298 15.472 107.298 19.024C107.298 22.576 107.442 25.456 107.826 27.664C108.21 29.872 108.642 31.552 109.17 32.704C109.698 33.904 110.274 34.72 110.898 35.104C111.474 35.488 112.05 35.68 112.53 35.68C113.442 35.68 114.258 35.2 115.026 34.24C115.794 33.28 116.514 32.032 117.186 30.448C117.378 29.968 117.57 29.536 117.762 29.056C117.954 28.576 118.098 28.048 118.242 27.424C118.386 26.848 118.53 26.08 118.722 25.216C118.866 24.352 119.01 23.296 119.202 22C119.298 22.048 119.49 22.048 119.682 22.048L118.098 36.64C118.002 35.872 117.858 35.296 117.618 34.96C117.33 34.672 117.042 34.48 116.754 34.48C116.466 34.48 116.226 34.576 115.938 34.768L114.546 35.68C114.018 36.064 113.346 36.208 112.53 36.208C111.57 36.208 110.658 35.92 109.794 35.296C108.93 34.72 108.162 33.712 107.49 32.368C106.818 31.024 106.242 29.248 105.858 27.04C105.426 24.88 105.234 22.192 105.234 19.024C105.234 15.856 105.426 13.216 105.858 11.008C106.242 8.84799 106.818 7.07199 107.49 5.72799C108.162 4.38399 108.93 3.37599 109.794 2.75199C110.658 2.17599 111.57 1.83999 112.53 1.83999Z" stroke="#54370C" stroke-width="0.5" mask="url(#path-1-outside-1_216_41)"/>
<path d="M122.337 1.35999C122.385 1.55199 122.481 1.69599 122.673 1.79199C122.817 1.88799 123.009 1.98399 123.249 2.07999C123.441 2.17599 123.777 2.22399 124.161 2.22399H134.385C134.769 2.22399 135.057 2.17599 135.297 2.07999C135.537 1.98399 135.729 1.88799 135.873 1.79199C136.017 1.69599 136.113 1.55199 136.209 1.35999L137.937 12.256L137.553 12.304L137.121 9.61599C136.737 7.35999 136.161 5.63199 135.393 4.47999C134.625 3.32799 133.617 2.70399 132.369 2.70399H132.081C131.553 2.70399 131.121 2.89599 130.833 3.27999C130.497 3.66399 130.353 4.14399 130.353 4.62399V33.616C130.353 34.192 130.449 34.624 130.689 34.912C130.881 35.2 131.313 35.344 131.889 35.344V35.824H126.657V35.344C127.233 35.344 127.617 35.2 127.857 34.912C128.049 34.624 128.193 34.192 128.193 33.616V4.62399C128.193 4.14399 128.001 3.66399 127.713 3.27999C127.377 2.89599 126.945 2.70399 126.417 2.70399H126.129C124.881 2.70399 123.921 3.32799 123.153 4.47999C122.385 5.63199 121.809 7.35999 121.425 9.61599L120.993 12.304L120.609 12.256L122.337 1.35999Z" stroke="#54370C" stroke-width="0.5" mask="url(#path-1-outside-1_216_41)"/>
<path d="M137.953 2.22399H143.617V2.70399H143.425C142.369 2.70399 141.889 3.27999 141.889 4.43199V33.616C141.889 34.768 142.369 35.344 143.425 35.344H143.617V35.824H137.953V35.344H138.145C139.201 35.344 139.729 34.768 139.729 33.616V4.43199C139.729 3.27999 139.201 2.70399 138.145 2.70399H137.953V2.22399Z" stroke="#54370C" stroke-width="0.5" mask="url(#path-1-outside-1_216_41)"/>
<path d="M143.625 19.024C143.625 15.856 143.817 13.216 144.249 11.008C144.633 8.84799 145.209 7.07199 145.881 5.72799C146.553 4.38399 147.321 3.37599 148.185 2.75199C149.049 2.17599 149.961 1.83999 150.921 1.83999C151.881 1.83999 152.793 2.17599 153.657 2.79999C154.521 3.42399 155.337 4.43199 156.009 5.77599C156.681 7.16799 157.257 8.94399 157.641 11.104C158.025 13.312 158.265 15.952 158.265 19.024C158.265 22.192 158.025 24.88 157.641 27.04C157.209 29.248 156.681 31.024 156.009 32.368C155.337 33.712 154.521 34.72 153.657 35.296C152.793 35.92 151.881 36.208 150.921 36.208C149.961 36.208 149.001 35.92 148.137 35.296C147.273 34.672 146.505 33.664 145.833 32.272C145.161 30.928 144.585 29.152 144.201 26.944C143.817 24.784 143.625 22.144 143.625 19.024ZM150.921 35.728C151.401 35.728 151.929 35.536 152.553 35.152C153.177 34.768 153.753 33.952 154.281 32.752C154.809 31.552 155.241 29.872 155.625 27.664C156.009 25.456 156.201 22.576 156.201 19.024C156.201 15.472 156.009 12.64 155.625 10.432C155.241 8.22399 154.809 6.54399 154.281 5.34399C153.753 4.19199 153.177 3.37599 152.553 2.99199C151.929 2.60799 151.401 2.36799 150.921 2.36799C150.441 2.36799 149.865 2.60799 149.289 2.99199C148.665 3.37599 148.089 4.19199 147.561 5.34399C147.033 6.54399 146.601 8.22399 146.217 10.432C145.833 12.64 145.689 15.472 145.689 19.024C145.689 22.576 145.833 25.456 146.217 27.664C146.601 29.872 147.033 31.552 147.561 32.752C148.089 33.952 148.665 34.768 149.289 35.152C149.865 35.536 150.441 35.728 150.921 35.728Z" stroke="#54370C" stroke-width="0.5" mask="url(#path-1-outside-1_216_41)"/>
<path d="M159.306 35.344C159.882 35.344 160.314 35.248 160.506 34.96C160.698 34.672 160.842 34.288 160.842 33.712V4.33599C160.842 3.80799 160.698 3.42399 160.506 3.13599C160.314 2.84799 159.882 2.70399 159.306 2.70399H158.25V2.22399H162.57L170.586 28.384V4.33599C170.538 3.80799 170.394 3.42399 170.202 3.13599C170.01 2.84799 169.626 2.70399 169.05 2.70399H167.994V2.22399H173.658V2.70399H172.602C171.978 2.70399 171.546 2.84799 171.354 3.13599C171.162 3.42399 171.066 3.80799 171.066 4.33599V35.824H170.586L161.322 5.19999V33.712C161.322 34.288 161.418 34.672 161.658 34.96C161.85 35.248 162.282 35.344 162.858 35.344H163.914V35.824H158.25V35.344H159.306Z" stroke="#54370C" stroke-width="0.5" mask="url(#path-1-outside-1_216_41)"/>
</svg>
