<svg  viewBox="0 0 30 24" fill="none" xmlns="http://www.w3.org/2000/svg">
<path fill-rule="evenodd" clip-rule="evenodd" d="M18.3648 0.0489983C17.9102 -0.130197 17.425 0.205322 17.4251 0.682834L17.4253 2.73249H15.8395C14.6615 1.57247 13.2527 0.662625 11.696 0.0489829C11.2411 -0.130313 10.7563 0.205585 10.7563 0.682747V4.94249C9.89635 4.96689 9.04752 5.14687 8.25168 5.47416C8.11449 5.53058 7.97929 5.5912 7.84629 5.65591C7.45211 5.86038 7.08085 6.1077 6.73961 6.39412C6.68621 6.43895 6.63363 6.48465 6.58191 6.53121C6.41653 6.68005 6.16093 6.66761 6.01101 6.50342C5.8611 6.33922 5.87363 6.08546 6.03901 5.93661C6.09763 5.88385 6.15722 5.83205 6.21774 5.78125C6.68567 5.38849 7.20341 5.06047 7.7567 4.80504C7.78595 4.79154 7.816 4.7818 7.84629 4.77564V2.89314C7.84629 1.80722 6.95962 0.92691 5.86587 0.92691C4.77212 0.92691 3.88545 1.80722 3.88545 2.89314L3.88546 11.9619L0.24416 16.6616C0.0805988 16.8728 0.232181 17.1784 0.500442 17.1784H8.53645C8.66193 17.1784 8.7803 17.1205 8.8568 17.0218L10.7563 14.5701V22.7962H5.25962C5.17033 22.7962 5.09795 22.7243 5.09795 22.6357V17.9809C5.09795 17.8701 5.00748 17.7803 4.89587 17.7803H4.08754C3.97593 17.7803 3.88545 17.8701 3.88545 17.9809V23.378C3.88545 23.7215 4.16594 24 4.51191 24H25.4882C25.8341 24 26.1146 23.7215 26.1146 23.378V17.9809C26.1146 17.8701 26.0241 17.7803 25.9125 17.7803H25.1042C24.9926 17.7803 24.9021 17.8701 24.9021 17.9809V22.7962H11.9688V14.5701L13.8683 17.0218C13.9448 17.1205 14.0632 17.1784 14.1886 17.1784H29.4996C29.7679 17.1784 29.9195 16.8728 29.7559 16.6616L26.1146 11.9619L26.1146 11.36C26.1146 8.89636 25.3633 6.49049 23.9595 4.459C22.5771 2.45841 20.6273 0.940879 18.3648 0.0489983ZM14.798 7.12654C14.798 6.24008 15.5218 5.52146 16.4146 5.52146C17.3075 5.52146 18.0313 6.24008 18.0313 7.12654V9.15296C18.0313 9.59619 17.6694 9.9555 17.223 9.9555C16.7765 9.9555 16.4146 9.59619 16.4146 9.15296V7.54788C16.4146 7.13619 16.7268 6.79691 17.129 6.7507C16.9933 6.49686 16.7243 6.324 16.4146 6.324C15.9682 6.324 15.6063 6.68331 15.6063 7.12654V7.92908C15.6063 8.1507 15.4253 8.33036 15.2021 8.33036C14.9789 8.33036 14.798 8.1507 14.798 7.92908V7.12654ZM19.85 7.12654C19.85 6.24008 20.5738 5.52146 21.4667 5.52146C22.3596 5.52146 23.0834 6.24008 23.0834 7.12654V9.15296C23.0834 9.59619 22.7215 9.9555 22.275 9.9555C21.8286 9.9555 21.4667 9.59619 21.4667 9.15296V7.54788C21.4667 7.13619 21.7789 6.79691 22.1811 6.7507C22.0453 6.49686 21.7764 6.324 21.4667 6.324C21.0203 6.324 20.6584 6.68331 20.6584 7.12654V7.92908C20.6584 8.1507 20.4774 8.33036 20.2542 8.33036C20.031 8.33036 19.85 8.1507 19.85 7.92908V7.12654ZM4.36116 13.3223C4.43767 13.2235 4.55603 13.1657 4.68151 13.1657H10.1505C10.2176 13.1657 10.2555 13.2421 10.2146 13.2949L8.25977 15.818C8.18326 15.9167 8.0649 15.9746 7.93941 15.9746H2.47038C2.40331 15.9746 2.36542 15.8982 2.40631 15.8454L4.36116 13.3223ZM12.5745 13.1657C12.5075 13.1657 12.4696 13.2421 12.5105 13.2949L14.4653 15.818C14.5418 15.9167 14.6602 15.9746 14.7857 15.9746H27.5297C27.5968 15.9746 27.6347 15.8982 27.5938 15.8454L25.6389 13.3223C25.5624 13.2235 25.4441 13.1657 25.3186 13.1657H12.5745Z" fill="#54370C"/>
<path d="M9.05877 19.7866C8.83555 19.7866 8.6546 19.9663 8.6546 20.1879C8.6546 20.6312 8.2927 20.9905 7.84627 20.9905C7.39984 20.9905 7.03793 20.6312 7.03793 20.1879C7.03793 19.9663 6.85698 19.7866 6.63377 19.7866C6.41055 19.7866 6.2296 19.9663 6.2296 20.1879C6.2296 21.0744 6.95341 21.793 7.84627 21.793C8.73913 21.793 9.46293 21.0744 9.46293 20.1879C9.46293 19.9663 9.28198 19.7866 9.05877 19.7866Z" fill="#54370C"/>
<path d="M6.63379 17.9809C6.96861 17.9809 7.24004 18.2504 7.24004 18.5828C7.24004 18.9153 6.96861 19.1847 6.63379 19.1847C6.29896 19.1847 6.02754 18.9153 6.02754 18.5828C6.02754 18.2504 6.29896 17.9809 6.63379 17.9809Z" fill="#54370C"/>
<path d="M9.66504 18.5828C9.66504 18.2504 9.39361 17.9809 9.05879 17.9809C8.72396 17.9809 8.45254 18.2504 8.45254 18.5828C8.45254 18.9153 8.72396 19.1847 9.05879 19.1847C9.39361 19.1847 9.66504 18.9153 9.66504 18.5828Z" fill="#54370C"/>
</svg>
